# xmcd
#
# Track frame offsets: 
#        150
#        45522
#        94866
#        121228
#        143839
#        177637
#        205696
#        234910
#        251449
#        286654
#
# Disc length: 4408 seconds
#
# Revision: 0
# Processed by: cddbd v1.5.2PL0 Copyright (c) Steve Scherf et al.
# Submitted via: ExactAudioCopyFreeDBPlugin 1.0
#
DISCID=8211360a
DTITLE=Jimmy Thackery and The Drivers - Live In Detroit
DYEAR=2010
DGENRE=Blues
TTITLE0=Don't Lose Your Cool
TTITLE1=Solid Ice
TTITLE2=Daze In May
TTITLE3=Big Long Buick
TTITLE4=Land Locked
TTITLE5=Detroit Iron
TTITLE6=Love My Baby
TTITLE7=Bomb The Moon
TTITLE8=Eat It All
TTITLE9=Blinking Of An Eye
EXTD=
EXTT0=
EXTT1=
EXTT2=
EXTT3=
EXTT4=
EXTT5=
EXTT6=
EXTT7=
EXTT8=
EXTT9=
PLAYORDER=
